<svg height="2110" width="720" xmlns="http://www.w3.org/2000/svg">
<rect height="2110" fill="#555" width="720"></rect>
<text fill="#7f7" font-family="Courier New" font-size="12" xml:space="preserve">
<tspan x="10" y="26"></tspan>
<tspan x="10" y="42">&gt; npmdoc-morgan@0.0.3 test /home/travis/build/npmdoc/node-npmdoc-morgan</tspan>
<tspan x="10" y="58">&gt; (set -e; export PORT=$(utility2 shServerPortRandom); utility2 test test.js)</tspan>
<tspan x="10" y="74"></tspan>
<tspan x="10" y="90"></tspan>
<tspan x="10" y="106">[MODE_BUILD=npmTest] - 2017-04-07T15:46:25Z - npm-testing /home/travis/build/npmdoc/node-npmdoc-\</tspan>
<tspan x="10" y="122">morgan</tspan>
<tspan x="10" y="138"></tspan>
<tspan x="10" y="154"></tspan>
<tspan x="10" y="170">covering $ /home/travis/.nvm/versions/node/v6.10.2/bin/node /home/travis/build/npmdoc/node-npmdo\</tspan>
<tspan x="10" y="186">c-morgan/test.js</tspan>
<tspan x="10" y="202">merging file:///home/travis/build/npmdoc/node-npmdoc-morgan/tmp/build/test-report.json to test-r\</tspan>
<tspan x="10" y="218">eport</tspan>
<tspan x="10" y="234">&gt; server listening on http-port 44591</tspan>
<tspan x="10" y="250">Fri, 07 Apr 2017 15:46:26 GMT morgan deprecated default format: use combined format at node_modu\</tspan>
<tspan x="10" y="266">les/utility2/lib.apidoc.js:761:63</tspan>
<tspan x="10" y="282">Fri, 07 Apr 2017 15:46:26 GMT morgan deprecated default format: use combined format at node_modu\</tspan>
<tspan x="10" y="298">les/utility2/lib.apidoc.js:757:63</tspan>
<tspan x="10" y="314">Fri, 07 Apr 2017 15:46:26 GMT morgan deprecated default format: use combined format at node_modu\</tspan>
<tspan x="10" y="330">les/utility2/lib.apidoc.js:132:41</tspan>
<tspan x="10" y="346">created apidoc file:///home/travis/build/npmdoc/node-npmdoc-morgan/tmp/build/apidoc.html</tspan>
<tspan x="10" y="362"></tspan>
<tspan x="10" y="378"></tspan>
<tspan x="10" y="394">browserTest - created electron entry-page /home/travis/build/npmdoc/node-npmdoc-morgan/tmp/elect\</tspan>
<tspan x="10" y="410">ron.15b4918622a0.2c8bd575b573e.html</tspan>
<tspan x="10" y="426"></tspan>
<tspan x="10" y="442">[node test-case 1 of 6 passed] - testCase_buildLib_default</tspan>
<tspan x="10" y="458">[node test-case 2 of 6 passed] - testCase_buildReadme_default</tspan>
<tspan x="10" y="474">[node test-case 3 of 6 passed] - testCase_buildTest_default</tspan>
<tspan x="10" y="490"></tspan>
<tspan x="10" y="506">browserTest - created electron entry-page /home/travis/build/npmdoc/node-npmdoc-morgan/tmp/elect\</tspan>
<tspan x="10" y="522">ron.15b4918625e0.e9766c02f57bc.html</tspan>
<tspan x="10" y="538"></tspan>
<tspan x="10" y="554">Xlib:  extension "RANDR" missing on display ":99.0".</tspan>
<tspan x="10" y="570">Xlib:  extension "RANDR" missing on display ":99.0".</tspan>
<tspan x="10" y="586">merging file:///home/travis/build/npmdoc/node-npmdoc-morgan/tmp/build/test-report.json to test-r\</tspan>
<tspan x="10" y="602">eport</tspan>
<tspan x="10" y="618">Xlib:  extension "RANDR" missing on display ":99.0".</tspan>
<tspan x="10" y="634">&gt; [5685:0407/154627:WARNING:audio_manager.cc(314)] Multiple instances of AudioManager detected</tspan>
<tspan x="10" y="650">[5685:0407/154627:WARNING:audio_manager.cc(275)] Multiple instances of AudioManager detected</tspan>
<tspan x="10" y="666">server listening on http-port 50160</tspan>
<tspan x="10" y="682">merging file:///home/travis/build/npmdoc/node-npmdoc-morgan/tmp/build/test-report.json to test-r\</tspan>
<tspan x="10" y="698">eport</tspan>
<tspan x="10" y="714">[5719:0407/154627:ERROR:sandbox_linux.cc(343)] InitializeSandbox() called with multiple threads \</tspan>
<tspan x="10" y="730">in process gpu-process. </tspan>
<tspan x="10" y="746">Xlib:  extension "RANDR" missing on display ":99.0".</tspan>
<tspan x="10" y="762">[5692:0407/154627:WARNING:audio_manager.cc(314)] Multiple instances of AudioManager detected</tspan>
<tspan x="10" y="778">[5692:0407/154627:WARNING:audio_manager.cc(275)] Multiple instances of AudioManager detected</tspan>
<tspan x="10" y="794">[5685:0407/154627:ERROR:browser_gpu_channel_host_factory.cc(131)] Failed to create channel.</tspan>
<tspan x="10" y="810">[5748:0407/154627:ERROR:sandbox_linux.cc(343)] InitializeSandbox() called with multiple threads \</tspan>
<tspan x="10" y="826">in process gpu-process. </tspan>
<tspan x="10" y="842">[5692:0407/154627:ERROR:browser_gpu_channel_host_factory.cc(131)] Failed to create channel.</tspan>
<tspan x="10" y="858"></tspan>
<tspan x="10" y="874">browserTest - opened url /home/travis/build/npmdoc/node-npmdoc-morgan/tmp/build/apidoc.html</tspan>
<tspan x="10" y="890"></tspan>
<tspan x="10" y="906"></tspan>
<tspan x="10" y="922">browserTest - opened url http://127.0.0.1:44591?modeTest=1</tspan>
<tspan x="10" y="938"></tspan>
<tspan x="10" y="954">[5692:0407/154629:INFO:CONSOLE(250)] "----------|-----------|-----------|-----------|-----------\</tspan>
<tspan x="10" y="970">|</tspan>
<tspan x="10" y="986">File      |   % Stmts |% Branches |   % Funcs |   % Lines |</tspan>
<tspan x="10" y="1002">----------|-----------|-----------|-----------|-----------|</tspan>
<tspan x="10" y="1018">----------|-----------|-----------|-----------|-----------|</tspan>
<tspan x="10" y="1034">All files |       100 |       100 |       100 |       100 |</tspan>
<tspan x="10" y="1050">----------|-----------|-----------|-----------|-----------|</tspan>
<tspan x="10" y="1066">", source: file:///home/travis/build/npmdoc/node-npmdoc-morgan/tmp/electron.15b4918625e0.e9766c0\</tspan>
<tspan x="10" y="1082">2f57bc.html (250)</tspan>
<tspan x="10" y="1098">[5692:0407/154629:INFO:CONSOLE(250)] "created coverage file:///tmp/build/coverage.html/index.htm\</tspan>
<tspan x="10" y="1114">l", source: file:///home/travis/build/npmdoc/node-npmdoc-morgan/tmp/electron.15b4918625e0.e9766c\</tspan>
<tspan x="10" y="1130">02f57bc.html (250)</tspan>
<tspan x="10" y="1146">[node test-case 4 of 6 passed] - testCase_buildApp_default</tspan>
<tspan x="10" y="1162"></tspan>
<tspan x="10" y="1178">browserTest - created screenCapture file:///home/travis/build/npmdoc/node-npmdoc-morgan/tmp/buil\</tspan>
<tspan x="10" y="1194">d/screenCapture.npmTest.browser._2Fhome_2Ftravis_2Fbuild_2Fnpmdoc_2Fnode-npmdoc-morgan_2Ftmp_2Fb\</tspan>
<tspan x="10" y="1210">uild_2Fapidoc.html.png</tspan>
<tspan x="10" y="1226"></tspan>
<tspan x="10" y="1242">browserTest - created screenCapture file:///home/travis/build/npmdoc/node-npmdoc-morgan/tmp/buil\</tspan>
<tspan x="10" y="1258">d/screenCapture.npmTest.browser._2Fhome_2Ftravis_2Fbuild_2Fnpmdoc_2Fnode-npmdoc-morgan_2Ftmp_2Fb\</tspan>
<tspan x="10" y="1274">uild_2Fapidoc.html.html</tspan>
<tspan x="10" y="1290"></tspan>
<tspan x="10" y="1306">browserTest - exit-code 0 - /home/travis/build/npmdoc/node-npmdoc-morgan/tmp/build/apidoc.html</tspan>
<tspan x="10" y="1322"></tspan>
<tspan x="10" y="1338">[node test-case 5 of 6 passed] - testCase_buildApidoc_default</tspan>
<tspan x="10" y="1354"></tspan>
<tspan x="10" y="1370">browserTest - created screenCapture file:///home/travis/build/npmdoc/node-npmdoc-morgan/tmp/buil\</tspan>
<tspan x="10" y="1386">d/screenCapture.npmTest.browser..png</tspan>
<tspan x="10" y="1402"></tspan>
<tspan x="10" y="1418">browserTest - created screenCapture file:///home/travis/build/npmdoc/node-npmdoc-morgan/tmp/buil\</tspan>
<tspan x="10" y="1434">d/screenCapture.npmTest.browser..html</tspan>
<tspan x="10" y="1450"></tspan>
<tspan x="10" y="1466">browserTest - exit-code 0 - http://127.0.0.1:44591?modeTest=1</tspan>
<tspan x="10" y="1482"></tspan>
<tspan x="10" y="1498"></tspan>
<tspan x="10" y="1514">browserTest - merged coverage from /home/travis/build/npmdoc/node-npmdoc-morgan/tmp/coverage.npm\</tspan>
<tspan x="10" y="1530">Test.browser.%2F.json</tspan>
<tspan x="10" y="1546"></tspan>
<tspan x="10" y="1562"></tspan>
<tspan x="10" y="1578">browserTest - merging test-report from /home/travis/build/npmdoc/node-npmdoc-morgan/tmp/test-rep\</tspan>
<tspan x="10" y="1594">ort.npmTest.browser.%2F.json</tspan>
<tspan x="10" y="1610"></tspan>
<tspan x="10" y="1626">[node test-case 6 of 6 passed] - testCase_webpage_default</tspan>
<tspan x="10" y="1642">---------------------------|-----------|-----------|-----------|-----------|</tspan>
<tspan x="10" y="1658">File                       |   % Stmts |% Branches |   % Funcs |   % Lines |</tspan>
<tspan x="10" y="1674">---------------------------|-----------|-----------|-----------|-----------|</tspan>
<tspan x="10" y="1690">   node-npmdoc-morgan/     |       100 |       100 |       100 |       100 |</tspan>
<tspan x="10" y="1706">      example.js           |       100 |       100 |       100 |       100 |</tspan>
<tspan x="10" y="1722">      lib.npmdoc_morgan.js |       100 |       100 |       100 |       100 |</tspan>
<tspan x="10" y="1738">      test.js              |       100 |       100 |       100 |       100 |</tspan>
<tspan x="10" y="1754">---------------------------|-----------|-----------|-----------|-----------|</tspan>
<tspan x="10" y="1770">All files                  |       100 |       100 |       100 |       100 |</tspan>
<tspan x="10" y="1786">---------------------------|-----------|-----------|-----------|-----------|</tspan>
<tspan x="10" y="1802"></tspan>
<tspan x="10" y="1818">created coverage file:///home/travis/build/npmdoc/node-npmdoc-morgan/tmp/build/coverage.html/ind\</tspan>
<tspan x="10" y="1834">ex.html</tspan>
<tspan x="10" y="1850">merging file:///home/travis/build/npmdoc/node-npmdoc-morgan/tmp/build/test-report.json to test-r\</tspan>
<tspan x="10" y="1866">eport</tspan>
<tspan x="10" y="1882"></tspan>
<tspan x="10" y="1898">-------------------------------------------------------</tspan>
<tspan x="10" y="1914">| test-report - buildNpmdoc - node - linux v6.10.2 - 2017-04-07T15:45:48.553Z</tspan>
<tspan x="10" y="1930">|   52760 ms            0 failed        6 passed      |</tspan>
<tspan x="10" y="1946">-------------------------------------------------------</tspan>
<tspan x="10" y="1962"></tspan>
<tspan x="10" y="1978">created test-report file:///home/travis/build/npmdoc/node-npmdoc-morgan/tmp/build/test-report.ht\</tspan>
<tspan x="10" y="1994">ml</tspan>
<tspan x="10" y="2010"></tspan>
<tspan x="10" y="2026"></tspan>
<tspan x="10" y="2042">npmTest - 0 failed tests</tspan>
<tspan x="10" y="2058"></tspan>
<tspan x="10" y="2074"></tspan>
<tspan x="10" y="2090">[MODE_BUILD=npmTest] - 2017-04-07T15:46:44Z - EXIT_CODE - 0</tspan>
</text>
</svg>
