<svg height="2110" width="720" xmlns="http://www.w3.org/2000/svg">
<rect height="2110" fill="#555" width="720"></rect>
<text fill="#7f7" font-family="Courier New" font-size="12" xml:space="preserve">
<tspan x="10" y="26"></tspan>
<tspan x="10" y="42">&gt; npmdoc-morgan@0.0.1 test /home/travis/build/npmdoc/node-npmdoc-morgan</tspan>
<tspan x="10" y="58">&gt; (set -e; export PORT=$(utility2 shServerPortRandom); utility2 test test.js)</tspan>
<tspan x="10" y="74"></tspan>
<tspan x="10" y="90"></tspan>
<tspan x="10" y="106">[MODE_BUILD=npmTest] - 2017-03-19T04:17:36Z - npm-testing /home/travis/build/npmdoc/node-npmdoc-\</tspan>
<tspan x="10" y="122">morgan</tspan>
<tspan x="10" y="138"></tspan>
<tspan x="10" y="154"></tspan>
<tspan x="10" y="170">covering $ /home/travis/.nvm/versions/node/v7.7.3/bin/node /home/travis/build/npmdoc/node-npmdoc\</tspan>
<tspan x="10" y="186">-morgan/test.js</tspan>
<tspan x="10" y="202">merging file:///home/travis/build/npmdoc/node-npmdoc-morgan/tmp/build/test-report.json to test-r\</tspan>
<tspan x="10" y="218">eport</tspan>
<tspan x="10" y="234">&gt; server listening on http-port 54489</tspan>
<tspan x="10" y="250">apidocCreate - normalizing dir morgan</tspan>
<tspan x="10" y="266">apidocCreate - normalized dir /home/travis/build/npmdoc/node-npmdoc-morgan/node_modules/morgan</tspan>
<tspan x="10" y="282">Sun, 19 Mar 2017 04:17:37 GMT morgan deprecated default format: use combined format at node_modu\</tspan>
<tspan x="10" y="298">les/utility2/lib.apidoc.js:691:63</tspan>
<tspan x="10" y="314">Sun, 19 Mar 2017 04:17:37 GMT morgan deprecated default format: use combined format at node_modu\</tspan>
<tspan x="10" y="330">les/utility2/lib.apidoc.js:687:63</tspan>
<tspan x="10" y="346">Sun, 19 Mar 2017 04:17:37 GMT morgan deprecated default format: use combined format at node_modu\</tspan>
<tspan x="10" y="362">les/utility2/lib.apidoc.js:125:41</tspan>
<tspan x="10" y="378">created apidoc file:///home/travis/build/npmdoc/node-npmdoc-morgan/tmp/build/apidoc.html</tspan>
<tspan x="10" y="394"></tspan>
<tspan x="10" y="410"></tspan>
<tspan x="10" y="426">browserTest - created electron entry-page /home/travis/build/npmdoc/node-npmdoc-morgan/tmp/elect\</tspan>
<tspan x="10" y="442">ron.15ae4c8eb330.bb624c174c639.html</tspan>
<tspan x="10" y="458"></tspan>
<tspan x="10" y="474">apidocCreate - normalizing dir morgan</tspan>
<tspan x="10" y="490">apidocCreate - normalized dir /home/travis/build/npmdoc/node-npmdoc-morgan/node_modules/morgan</tspan>
<tspan x="10" y="506">[node test-case 1 of 6 passed] - testCase_buildLib_default</tspan>
<tspan x="10" y="522">[node test-case 2 of 6 passed] - testCase_buildReadme_default</tspan>
<tspan x="10" y="538">[node test-case 3 of 6 passed] - testCase_buildTest_default</tspan>
<tspan x="10" y="554"></tspan>
<tspan x="10" y="570">browserTest - created electron entry-page /home/travis/build/npmdoc/node-npmdoc-morgan/tmp/elect\</tspan>
<tspan x="10" y="586">ron.15ae4c8eb850.d9c8713db65b8.html</tspan>
<tspan x="10" y="602"></tspan>
<tspan x="10" y="618">(node:4374) DeprecationWarning: node --debug is deprecated. Please use node --inspect instead.</tspan>
<tspan x="10" y="634">Xlib:  extension "RANDR" missing on display ":99.0".</tspan>
<tspan x="10" y="650">Xlib:  extension "RANDR" missing on display ":99.0".</tspan>
<tspan x="10" y="666">&gt; server listening on http-port 45023</tspan>
<tspan x="10" y="682">merging file:///home/travis/build/npmdoc/node-npmdoc-morgan/tmp/build/test-report.json to test-r\</tspan>
<tspan x="10" y="698">eport</tspan>
<tspan x="10" y="714">Xlib:  extension "RANDR" missing on display ":99.0".</tspan>
<tspan x="10" y="730">[4406:0319/041738:WARNING:audio_manager.cc(314)] Multiple instances of AudioManager detected</tspan>
<tspan x="10" y="746">[4406:0319/041738:WARNING:audio_manager.cc(275)] Multiple instances of AudioManager detected</tspan>
<tspan x="10" y="762">merging file:///home/travis/build/npmdoc/node-npmdoc-morgan/tmp/build/test-report.json to test-r\</tspan>
<tspan x="10" y="778">eport</tspan>
<tspan x="10" y="794">[4434:0319/041738:ERROR:sandbox_linux.cc(343)] InitializeSandbox() called with multiple threads \</tspan>
<tspan x="10" y="810">in process gpu-process. </tspan>
<tspan x="10" y="826">Xlib:  extension "RANDR" missing on display ":99.0".</tspan>
<tspan x="10" y="842">[4410:0319/041738:WARNING:audio_manager.cc(314)] Multiple instances of AudioManager detected</tspan>
<tspan x="10" y="858">[4410:0319/041738:WARNING:audio_manager.cc(275)] Multiple instances of AudioManager detected</tspan>
<tspan x="10" y="874">[4457:0319/041738:ERROR:sandbox_linux.cc(343)] InitializeSandbox() called with multiple threads \</tspan>
<tspan x="10" y="890">in process gpu-process. </tspan>
<tspan x="10" y="906"></tspan>
<tspan x="10" y="922">browserTest - opened url file:///home/travis/build/npmdoc/node-npmdoc-morgan/tmp/build/apidoc.ht\</tspan>
<tspan x="10" y="938">ml</tspan>
<tspan x="10" y="954"></tspan>
<tspan x="10" y="970"></tspan>
<tspan x="10" y="986">browserTest - opened url http://127.0.0.1:54489?modeTest=1</tspan>
<tspan x="10" y="1002"></tspan>
<tspan x="10" y="1018">[4410:0319/041740:INFO:CONSOLE(203)] "----------|-----------|-----------|-----------|-----------\</tspan>
<tspan x="10" y="1034">|</tspan>
<tspan x="10" y="1050">File      |   % Stmts |% Branches |   % Funcs |   % Lines |</tspan>
<tspan x="10" y="1066">----------|-----------|-----------|-----------|-----------|</tspan>
<tspan x="10" y="1082">----------|-----------|-----------|-----------|-----------|</tspan>
<tspan x="10" y="1098">All files |       100 |       100 |       100 |       100 |</tspan>
<tspan x="10" y="1114">----------|-----------|-----------|-----------|-----------|</tspan>
<tspan x="10" y="1130">", source: file:///home/travis/build/npmdoc/node-npmdoc-morgan/tmp/electron.15ae4c8eb850.d9c8713\</tspan>
<tspan x="10" y="1146">db65b8.html (203)</tspan>
<tspan x="10" y="1162">[4410:0319/041740:INFO:CONSOLE(203)] "created coverage file:///tmp/build/coverage.html/index.htm\</tspan>
<tspan x="10" y="1178">l", source: file:///home/travis/build/npmdoc/node-npmdoc-morgan/tmp/electron.15ae4c8eb850.d9c871\</tspan>
<tspan x="10" y="1194">3db65b8.html (203)</tspan>
<tspan x="10" y="1210">[node test-case 4 of 6 passed] - testCase_buildApp_default</tspan>
<tspan x="10" y="1226"></tspan>
<tspan x="10" y="1242">browserTest - created screen-capture file:///home/travis/build/npmdoc/node-npmdoc-morgan/tmp/bui\</tspan>
<tspan x="10" y="1258">ld/screen-capture.npmTest.browser._2Fhome_2Ftravis_2Fbuild_2Fnpmdoc_2Fnode-npmdoc-morgan_2Ftmp_2\</tspan>
<tspan x="10" y="1274">Fbuild_2Fapidoc.html.png</tspan>
<tspan x="10" y="1290"></tspan>
<tspan x="10" y="1306"></tspan>
<tspan x="10" y="1322">browserTest - exit-code 0 - file:///home/travis/build/npmdoc/node-npmdoc-morgan/tmp/build/apidoc\</tspan>
<tspan x="10" y="1338">.html</tspan>
<tspan x="10" y="1354"></tspan>
<tspan x="10" y="1370">[node test-case 5 of 6 passed] - testCase_buildApidoc_default</tspan>
<tspan x="10" y="1386"></tspan>
<tspan x="10" y="1402">browserTest - created screen-capture file:///home/travis/build/npmdoc/node-npmdoc-morgan/tmp/bui\</tspan>
<tspan x="10" y="1418">ld/screen-capture.npmTest.browser..png</tspan>
<tspan x="10" y="1434"></tspan>
<tspan x="10" y="1450"></tspan>
<tspan x="10" y="1466">browserTest - exit-code 0 - http://127.0.0.1:54489?modeTest=1</tspan>
<tspan x="10" y="1482"></tspan>
<tspan x="10" y="1498"></tspan>
<tspan x="10" y="1514">browserTest - merged coverage from /home/travis/build/npmdoc/node-npmdoc-morgan/tmp/coverage.npm\</tspan>
<tspan x="10" y="1530">Test.browser.%2F.json</tspan>
<tspan x="10" y="1546"></tspan>
<tspan x="10" y="1562"></tspan>
<tspan x="10" y="1578">browserTest - merging test-report from /home/travis/build/npmdoc/node-npmdoc-morgan/tmp/test-rep\</tspan>
<tspan x="10" y="1594">ort.npmTest.browser.%2F.json</tspan>
<tspan x="10" y="1610"></tspan>
<tspan x="10" y="1626">[node test-case 6 of 6 passed] - testCase_webpage_default</tspan>
<tspan x="10" y="1642">---------------------------|-----------|-----------|-----------|-----------|</tspan>
<tspan x="10" y="1658">File                       |   % Stmts |% Branches |   % Funcs |   % Lines |</tspan>
<tspan x="10" y="1674">---------------------------|-----------|-----------|-----------|-----------|</tspan>
<tspan x="10" y="1690">   node-npmdoc-morgan/     |       100 |       100 |       100 |       100 |</tspan>
<tspan x="10" y="1706">      example.js           |       100 |       100 |       100 |       100 |</tspan>
<tspan x="10" y="1722">      lib.npmdoc_morgan.js |       100 |       100 |       100 |       100 |</tspan>
<tspan x="10" y="1738">      test.js              |       100 |       100 |       100 |       100 |</tspan>
<tspan x="10" y="1754">---------------------------|-----------|-----------|-----------|-----------|</tspan>
<tspan x="10" y="1770">All files                  |       100 |       100 |       100 |       100 |</tspan>
<tspan x="10" y="1786">---------------------------|-----------|-----------|-----------|-----------|</tspan>
<tspan x="10" y="1802"></tspan>
<tspan x="10" y="1818">created coverage file:///home/travis/build/npmdoc/node-npmdoc-morgan/tmp/build/coverage.html/ind\</tspan>
<tspan x="10" y="1834">ex.html</tspan>
<tspan x="10" y="1850">merging file:///home/travis/build/npmdoc/node-npmdoc-morgan/tmp/build/test-report.json to test-r\</tspan>
<tspan x="10" y="1866">eport</tspan>
<tspan x="10" y="1882"></tspan>
<tspan x="10" y="1898">-------------------------------------------------------</tspan>
<tspan x="10" y="1914">| test-report - buildNpmdoc - node - linux v7.7.3 - 2017-03-19T04:17:26.758Z</tspan>
<tspan x="10" y="1930">|   15842 ms            0 failed        6 passed      |</tspan>
<tspan x="10" y="1946">-------------------------------------------------------</tspan>
<tspan x="10" y="1962"></tspan>
<tspan x="10" y="1978">created test-report file:///home/travis/build/npmdoc/node-npmdoc-morgan/tmp/build/test-report.ht\</tspan>
<tspan x="10" y="1994">ml</tspan>
<tspan x="10" y="2010"></tspan>
<tspan x="10" y="2026"></tspan>
<tspan x="10" y="2042">npmTest - 0 failed tests</tspan>
<tspan x="10" y="2058"></tspan>
<tspan x="10" y="2074"></tspan>
<tspan x="10" y="2090">[MODE_BUILD=npmTest] - 2017-03-19T04:17:45Z - EXIT_CODE - 0</tspan>
</text>
</svg>
